<svg width="25" height="24" viewBox="0 0 25 24" fill="none" xmlns="http://www.w3.org/2000/svg">
    <circle cx="12.501" cy="5.776" r="4.534" stroke="#252525" stroke-width="1.5"/>
    <path d="m17.44 13.26-.166-.732.166.731zM3.326 17.24c0-.544.254-1.117.824-1.687.574-.573 1.435-1.106 2.54-1.535l-.543-1.398c-1.234.479-2.294 1.11-3.057 1.871-.766.766-1.264 1.7-1.264 2.75h1.5zm9.174 4.212c-2.65 0-5.01-.538-6.682-1.374-1.716-.858-2.492-1.905-2.492-2.838h-1.5c0 1.808 1.445 3.242 3.321 4.18 1.92.96 4.521 1.532 7.353 1.532v-1.5zm9.174-4.212c0 .933-.776 1.98-2.492 2.838-1.672.836-4.033 1.374-6.682 1.374v1.5c2.831 0 5.432-.572 7.352-1.532 1.876-.938 3.322-2.372 3.322-4.18h-1.5zM18.31 14.02c1.104.429 1.966.962 2.54 1.535.57.57.824 1.143.824 1.687h1.5c0-1.05-.499-1.983-1.265-2.749-.763-.762-1.822-1.392-3.056-1.871l-.543 1.398zm-1.036-1.491c-1.448.33-3.065.516-4.774.516v1.5c1.816 0 3.545-.197 5.107-.554l-.333-1.462zm-4.774.516c-1.71 0-3.327-.186-4.774-.516l-.334 1.462c1.562.357 3.292.554 5.108.554v-1.5zm6.353-.423a2.698 2.698 0 0 0-1.58-.093l.334 1.462c.265-.06.507-.047.703.03l.543-1.4zM6.69 14.019c.196-.076.437-.09.702-.029l.334-1.462a2.698 2.698 0 0 0-1.58.093l.544 1.398z" fill="#252525"/>
</svg>
