<svg width="25" height="24" viewBox="0 0 25 24" fill="none" xmlns="http://www.w3.org/2000/svg">
    <path d="M2.5 8.607a.2.2 0 0 1 .09-.166l2.05-1.367a.2.2 0 0 1 .22 0l2.05 1.367a.2.2 0 0 1 .09.166V20.8a.2.2 0 0 1-.2.2H2.7a.2.2 0 0 1-.2-.2V8.607zM10 11.613a.2.2 0 0 1 .097-.171l2.3-1.38a.2.2 0 0 1 .206 0l2.3 1.38a.2.2 0 0 1 .097.171V20.8a.2.2 0 0 1-.2.2h-4.6a.2.2 0 0 1-.2-.2v-9.187zM18 3.607a.2.2 0 0 1 .09-.166l2.05-1.367a.2.2 0 0 1 .22 0l2.05 1.367a.2.2 0 0 1 .09.166V20.8a.2.2 0 0 1-.2.2h-4.1a.2.2 0 0 1-.2-.2V3.607z" fill="#0058FF" stroke="#0058FF" stroke-width="1.5"/>
</svg>
