<svg width="24" height="24" viewBox="0 0 24 24" fill="none" xmlns="http://www.w3.org/2000/svg">
    <path fill-rule="evenodd" clip-rule="evenodd" d="M12 2a9 9 0 0 1 9 9v8.5a2.5 2.5 0 0 1-2.5 2.5H12c-.168 0-.335-.005-.5-.014v-1.502c.114.007.228.012.343.014L12 20.5h6.5a1 1 0 0 0 .997-.925l.003-.075v-1.208a2.491 2.491 0 0 1-1 .208H15v-7h4.5V11a7.5 7.5 0 0 0-14.998-.157L4.5 11v.5H9v7H5.5A2.5 2.5 0 0 1 3 16v-5a9 9 0 0 1 9-9zm7.5 11h-3v4h2l.075-.003A1 1 0 0 0 19.5 16v-3zm-14.984.5H4.5V16a1 1 0 0 0 .925.997L5.5 17h2v-4h-3c0 .168.006.335.016.5z" fill="#252525"/>
</svg>
