<svg width="24" height="24" viewBox="0 0 24 24" fill="none" xmlns="http://www.w3.org/2000/svg">
    <path fill-rule="evenodd" clip-rule="evenodd" d="M12 4.5c4 0 7.667 2.42 11 7.258-3.333 5.161-7 7.742-11 7.742s-7.667-2.58-11-7.742C4.333 6.919 8 4.5 12 4.5zM12 6c-3.204 0-6.239 1.856-9.126 5.717l-.05.069.055.08c2.845 4.072 5.826 6.062 8.95 6.132L12 18c3.187 0 6.224-1.988 9.121-6.135l.055-.08-.05-.068c-2.834-3.79-5.81-5.648-8.948-5.715L12 6zm0 2a4 4 0 1 1 0 8 4 4 0 0 1 0-8zm0 1.5a2.5 2.5 0 1 0 0 5 2.5 2.5 0 0 0 0-5z" fill="#252525"/>
</svg>
