<svg width="24" height="24" viewBox="0 0 24 24" fill="none" xmlns="http://www.w3.org/2000/svg">
    <path fill-rule="evenodd" clip-rule="evenodd" d="M12 3a6.5 6.5 0 0 1 6.496 6.27 5.752 5.752 0 0 1-2.246 11.209l.396-1.48.104.001a4.25 4.25 0 0 0 1.418-8.258l-.127-.043-1.007-.32-.037-1.057a5 5 0 0 0-9.987-.139l-.006.139-.037 1.057-1.008.32A4.252 4.252 0 0 0 7.25 19l.103-.002.397 1.48A5.75 5.75 0 0 1 5.505 9.27 6.5 6.5 0 0 1 12 3zm-.75 14.19-2.22-2.22-1.06 1.06L12 20.06l4.03-4.03-1.06-1.06-2.22 2.22V10.5h-1.5v6.69z" fill="#252525"/>
</svg>
