<svg width="24" height="24" viewBox="0 0 24 24" fill="none" xmlns="http://www.w3.org/2000/svg">
    <path fill-rule="evenodd" clip-rule="evenodd" d="M19.071 4.929A9.969 9.969 0 0 0 12 2a9.969 9.969 0 0 0-7.071 2.929A9.969 9.969 0 0 0 2 12a9.969 9.969 0 0 0 2.929 7.071A9.969 9.969 0 0 0 12 22a9.97 9.97 0 0 0 7.071-2.929A9.97 9.97 0 0 0 22 12a9.969 9.969 0 0 0-2.929-7.071zM5.99 5.989A8.467 8.467 0 0 1 12 3.5c2.286 0 4.426.905 6.01 2.49A8.467 8.467 0 0 1 20.5 12a8.468 8.468 0 0 1-2.49 6.01A8.468 8.468 0 0 1 12 20.5a8.467 8.467 0 0 1-6.01-2.49A8.467 8.467 0 0 1 3.5 12c0-2.286.905-4.426 2.49-6.01zM12 18a1.125 1.125 0 1 0 0-2.25A1.125 1.125 0 0 0 12 18zm0-12a3.5 3.5 0 0 1 .75 6.92V14h-1.5v-2.5H12a2 2 0 1 0-2-2H8.5A3.5 3.5 0 0 1 12 6z" fill="#252525"/>
</svg>
