<svg width="24" height="24" viewBox="0 0 24 24" fill="none" xmlns="http://www.w3.org/2000/svg">
    <path fill-rule="evenodd" clip-rule="evenodd" d="m7.941 5.38 1.15 1.15A8.268 8.268 0 0 1 12 6l.178.002c3.139.067 6.114 1.926 8.948 5.715l.05.068-.055.08c-1.02 1.46-2.057 2.652-3.111 3.584l1.06 1.061c1.358-1.214 2.668-2.798 3.93-4.753C19.667 6.92 16 4.5 12 4.5a9.84 9.84 0 0 0-4.059.88zM21.47 21.03l-18-18-1 1 2.909 2.91C3.86 8.117 2.4 9.723 1 11.756 4.333 16.92 8 19.5 12 19.5c1.614 0 3.174-.42 4.679-1.26l3.79 3.79 1-1zm-5.667-7.788a4 4 0 0 0-5.046-5.046l1.304 1.305a2.5 2.5 0 0 1 2.438 2.438l1.304 1.303zM2.874 11.717c1.167-1.56 2.358-2.793 3.574-3.708L8.5 10.06a4 4 0 0 0 5.438 5.438l1.63 1.63C14.4 17.713 13.212 18 12 18l-.17-.001c-3.125-.07-6.106-2.06-8.951-6.133l-.055-.08.05-.068zM9.5 12c0-.282.047-.553.133-.806l3.173 3.173A2.5 2.5 0 0 1 9.5 12z" fill="#252525"/>
</svg>
